<svg width="18" height="18" viewBox="0 0 18 18" fill="none" xmlns="http://www.w3.org/2000/svg">
<path d="M14.5905 2.48891C13.8064 1.69686 12.8724 1.06886 11.843 0.641552C10.8137 0.214242 9.70952 -0.00383174 8.59499 5.09485e-05C3.92518 5.09485e-05 0.119203 3.80603 0.119203 8.47584C0.119203 9.97257 0.512631 11.4265 1.24817 12.7095L0.0507812 17.1056L4.54098 15.9253C5.78113 16.601 7.17523 16.9602 8.59499 16.9602C13.2648 16.9602 17.0708 13.1542 17.0708 8.48439C17.0708 6.21791 16.1898 4.08827 14.5905 2.48891ZM8.59499 15.5233C7.32918 15.5233 6.08903 15.1812 5.00283 14.5397L4.74625 14.3858L2.07779 15.0871L2.78767 12.4871L2.61661 12.222C1.91336 11.0989 1.53994 9.80087 1.53896 8.47584C1.53896 4.59288 4.70348 1.42836 8.58644 1.42836C10.468 1.42836 12.2385 2.1639 13.5641 3.49813C14.2206 4.15153 14.7408 4.92872 15.0946 5.78465C15.4484 6.64058 15.6288 7.55822 15.6254 8.48439C15.6425 12.3673 12.4779 15.5233 8.59499 15.5233ZM12.4608 10.2548C12.247 10.1522 11.2036 9.63902 11.0154 9.56204C10.8187 9.49362 10.6819 9.45941 10.5365 9.66467C10.3911 9.87849 9.98909 10.3574 9.86935 10.4943C9.74961 10.6397 9.62132 10.6568 9.4075 10.5456C9.19369 10.443 8.50946 10.2121 7.7055 9.49362C7.0726 8.92914 6.65351 8.23636 6.52522 8.02254C6.40548 7.80872 6.50812 7.69754 6.6193 7.58635C6.71338 7.49227 6.83312 7.33832 6.93576 7.21858C7.03839 7.09884 7.08115 7.00476 7.14958 6.86792C7.218 6.72252 7.18379 6.60278 7.13247 6.50015C7.08115 6.39752 6.65351 5.35408 6.48246 4.92644C6.3114 4.51591 6.1318 4.56723 6.0035 4.55867H5.59297C5.44757 4.55867 5.2252 4.60999 5.02849 4.82381C4.84033 5.03763 4.29295 5.55079 4.29295 6.59423C4.29295 7.63767 5.05415 8.64689 5.15678 8.78374C5.25941 8.92914 6.65351 11.0673 8.7746 11.9825C9.27921 12.2048 9.67264 12.3331 9.98054 12.4272C10.4852 12.5897 10.947 12.5641 11.3148 12.5127C11.7253 12.4529 12.572 11.9996 12.7431 11.5035C12.9227 11.0075 12.9227 10.5884 12.8628 10.4943C12.803 10.4002 12.6747 10.3574 12.4608 10.2548Z" fill="white"/>
</svg>
